<svg xmlns="http://www.w3.org/2000/svg" viewBox="0 0 800 520"><rect width="800" height="520" fill="#eaeef2"/><rect y="410" width="800" height="110" fill="#c8d5e0"/><rect x="250" y="75" width="300" height="340" rx="12" fill="#fff" stroke="#0f2f4f" stroke-width="10"/><path d="M290 120h220M290 205h220M290 290h220M290 375h220" stroke="#b08d3e" stroke-width="9"/><g fill="#a9c3d8" stroke="#0f2f4f" stroke-width="5"><rect x="300" y="140" width="55" height="38"/><rect x="375" y="140" width="55" height="38"/><rect x="450" y="140" width="55" height="38"/><rect x="300" y="225" width="55" height="38"/><rect x="375" y="225" width="55" height="38"/><rect x="450" y="225" width="55" height="38"/><rect x="300" y="310" width="55" height="38"/><rect x="375" y="310" width="55" height="38"/><rect x="450" y="310" width="55" height="38"/></g><circle cx="650" cy="110" r="60" fill="#b08d3e" opacity=".25"/></svg>